<?xml version="1.0" encoding="utf-8"?>
<!-- Generator: Adobe Illustrator 13.0.1, SVG Export Plug-In . SVG Version: 6.00 Build 14948)  -->
<!DOCTYPE svg PUBLIC "-//W3C//DTD SVG 1.1//EN" "http://www.w3.org/Graphics/SVG/1.1/DTD/svg11.dtd">
<svg version="1.1" id="Vrstva_1" xmlns="http://www.w3.org/2000/svg" xmlns:xlink="http://www.w3.org/1999/xlink" x="0px" y="0px"
	 width="174.843262px" height="139.851562px" viewBox="0 0 174.843262 139.851562"
	 enable-background="new 0 0 174.843262 139.851562" xml:space="preserve">
<g>
	<path fill="#FF9999" d="M166.093262,58.796875L166.093262,58.796875c11.663086,11.660156,11.670898,30.574219,0,42.242188
		c-11.663086,11.663086-30.571289,11.650391-42.229492-0.009766l-36.573242-36.71582l-36.317383,36.429688
		c-11.661133,11.663086-30.572266,11.650391-42.230469-0.009766c-11.657227-11.658203-11.657227-30.55957,0.00293-42.222656
		L66.476074,8.751953c11.667969-11.667969,30.5625-11.667969,42.224609-0.007812l0,0L166.093262,58.796875z"/>
	<path fill="#FFA400" d="M103.786621,28.889648c0,9.048828-7.342773,16.396484-16.40918,16.396484
		c-9.051758,0-16.396484-7.347656-16.396484-16.396484c0-9.066406,7.344727-16.394531,16.396484-16.394531
		C96.443848,12.495117,103.786621,19.823242,103.786621,28.889648L103.786621,28.889648z M103.786621,28.889648"/>
	<path fill="none" stroke="#000000" stroke-width="2" d="M103.992676,29.861328c0,9.049805-7.342773,16.396484-16.40918,16.396484
		c-9.053711,0-16.396484-7.34668-16.396484-16.396484c0-9.06543,7.342773-16.393555,16.396484-16.393555
		C96.649902,13.467773,103.992676,20.795898,103.992676,29.861328L103.992676,29.861328z M103.992676,29.861328"/>
	<path fill="#FFFFFF" d="M46.257324,79.623047c0,9.051758-7.342773,16.394531-16.394531,16.394531
		c-9.053711,0-16.396484-7.342773-16.396484-16.394531c0-9.053711,7.342773-16.396484,16.396484-16.396484
		C38.914551,63.226562,46.257324,70.569336,46.257324,79.623047L46.257324,79.623047z M46.257324,79.623047"/>
	<path fill="none" stroke="#000000" stroke-width="2" d="M46.257324,79.623047c0,9.051758-7.342773,16.394531-16.394531,16.394531
		c-9.053711,0-16.396484-7.342773-16.396484-16.394531c0-9.053711,7.342773-16.396484,16.396484-16.396484
		C38.914551,63.226562,46.257324,70.569336,46.257324,79.623047L46.257324,79.623047z M46.257324,79.623047"/>
	<path fill="#FFFFFF" d="M161.377441,79.916992c0,9.050781-7.342773,16.393555-16.393555,16.393555
		c-9.051758,0-16.396484-7.342773-16.396484-16.393555c0-9.051758,7.344727-16.396484,16.396484-16.396484
		C154.034668,63.520508,161.377441,70.865234,161.377441,79.916992L161.377441,79.916992z M161.377441,79.916992"/>
	<path fill="none" stroke="#000000" stroke-width="2" d="M161.377441,79.916992c0,9.050781-7.342773,16.393555-16.393555,16.393555
		c-9.051758,0-16.396484-7.342773-16.396484-16.393555c0-9.051758,7.344727-16.396484,16.396484-16.396484
		C154.034668,63.520508,161.377441,70.865234,161.377441,79.916992L161.377441,79.916992z"/>
	<path fill="none" stroke="#000000" stroke-width="2" d="M161.168457,79.767578"/>
	<path fill="none" stroke="#000000" stroke-width="2" d="M59.462402,79.327148"/>
	<path fill="none" stroke="#000000" stroke-width="2" d="M42.26709,68.897461l32.847656-29.138672 M99.651855,39.758789
		l32.845703,29.138672"/>
	<path fill="#FFFFFF" stroke="#000000" stroke-width="2" d="M84.031738,119.842773
		c1.44043,8.947266-4.643555,17.362305-13.585938,18.799805c-8.936523,1.43457-17.351562-4.651367-18.791016-13.598633
		c-1.438477-8.939453,4.648438-17.353516,13.583008-18.789062C74.179199,104.817383,82.599121,110.901367,84.031738,119.842773
		L84.031738,119.842773z M84.031738,119.842773 M40.498535,92.601562L57.472168,109.75"/>
</g>
</svg>
